<svg xmlns="http://www.w3.org/2000/svg" viewBox="0 0 28 28"><defs><style>.cls-1{fill:#d9534f;}.cls-2{fill:#933737;}.cls-3{fill:#f8f0e9;}</style></defs><title>Asset 1</title><g id="Layer_2" data-name="Layer 2"><g id="Layer_1-2" data-name="Layer 1"><circle class="cls-1" cx="14" cy="14" r="12.48"/><path class="cls-2" d="M4.1,4.1a14,14,0,1,0,19.8,0A14,14,0,0,0,4.1,4.1ZM22,22A11.33,11.33,0,1,1,22,6,11.33,11.33,0,0,1,22,22Z"/><path class="cls-2" d="M4.88,3.4,3.49,2,3.14,7.3l5.28-.36L7,5.56"/><path class="cls-2" d="M21.15,22.49l-1.39-1.38L25,20.75,24.69,26,23.3,24.64"/><path class="cls-3" d="M8.27,9.54v8.91L13.36,14m1.28,4.45h1.9V9.54h-1.9m3.18,0v8.91h1.91V9.54"/></g></g></svg>