<?xml version="1.0" standalone="no"?>
<!DOCTYPE svg PUBLIC "-//W3C//DTD SVG 20010904//EN"
 "http://www.w3.org/TR/2001/REC-SVG-20010904/DTD/svg10.dtd">
<svg version="1.0" xmlns="http://www.w3.org/2000/svg"
 width="700.000000pt" height="700.000000pt" viewBox="0 0 700.000000 700.000000"
 preserveAspectRatio="xMidYMid meet">
<metadata>
Created by potrace 1.11, written by Peter Selinger 2001-2013
</metadata>
<g transform="translate(0.000000,700.000000) scale(0.100000,-0.100000)"
fill="#000000" stroke="none">
<path d="M3298 6996 c-1 -2 -41 -6 -88 -10 -47 -3 -96 -8 -110 -10 -14 -2 -48
-7 -77 -10 -80 -10 -294 -53 -402 -81 -466 -123 -928 -354 -1305 -653 l-99
-78 -169 170 c-92 93 -170 168 -172 165 -2 -2 -7 -44 -10 -94 -3 -49 -8 -121
-11 -160 -8 -109 -19 -280 -29 -436 -3 -39 -12 -57 -58 -115 -64 -80 -218
-309 -272 -404 -55 -97 -178 -353 -219 -455 -68 -168 -131 -373 -177 -580 -21
-92 -19 -82 -36 -190 -3 -16 -9 -55 -14 -85 -51 -313 -42 -832 20 -1130 6 -30
14 -66 16 -80 70 -350 214 -728 384 -1004 230 -376 485 -671 810 -937 478
-391 1075 -669 1640 -764 19 -3 42 -8 50 -10 8 -2 38 -7 65 -10 28 -4 57 -8
65 -10 102 -26 640 -26 791 0 13 2 45 6 70 9 25 3 66 10 90 15 24 5 57 12 73
15 302 54 678 186 964 337 223 118 473 283 630 416 35 29 66 53 70 53 4 0 90
-81 191 -180 102 -99 187 -178 189 -175 6 5 8 33 16 191 4 65 9 146 11 179 3
33 7 103 10 155 2 52 8 136 11 185 l6 90 59 75 c325 417 548 907 644 1420 20
110 22 124 30 191 3 31 8 67 10 80 18 90 24 473 11 634 -4 50 -9 110 -11 135
-2 25 -8 74 -14 110 -6 36 -13 83 -16 105 -12 77 -16 100 -20 115 -2 8 -6 26
-9 40 -9 53 -56 232 -86 331 -52 167 -126 353 -211 524 -100 202 -134 260
-238 415 -249 370 -546 663 -943 928 -42 29 -79 52 -82 52 -3 0 -24 13 -48 29
-56 37 -290 157 -398 204 -281 121 -536 197 -825 247 -33 5 -70 12 -82 14 -12
3 -50 7 -85 11 -35 3 -76 8 -93 11 -33 5 -511 14 -517 10z"/>
</g>
</svg>
